<?xml version="1.0" encoding="UTF-8"?>
<svg id="Capa_1" width="20px" height="20px" data-name="Capa 1" xmlns="http://www.w3.org/2000/svg" viewBox="0 0 511.24 434">
  <defs>
    <style>
      .cls-1 { fill: #020202; }
      .cls-1, .cls-2, .cls-3, .cls-4, .cls-5, .cls-6, .cls-7, .cls-8, .cls-9, .cls-10, .cls-11, .cls-12, .cls-13, .cls-14, .cls-15, .cls-16, .cls-17, .cls-18, .cls-19, .cls-20, .cls-21, .cls-22, .cls-23 {
        stroke-width: 0px;
      }
      .cls-2 { fill: #8696a3; }
      .cls-3 { fill: #445765; }
      .cls-4 { fill: #52687c; }
      .cls-5 { fill: #2a3138; }
      .cls-6 { fill: #f6f0e7; }
      .cls-7 { fill: #5a5e61; }
      .cls-8 { fill: #0e0e0e; }
      .cls-9 { fill: #f8e3ca; }
      .cls-10 { fill: #070707; }
      .cls-11 { fill: #435767; }
      .cls-12 { fill: #ccdce7; }
      .cls-13 { fill: #141414; }
      .cls-14 { fill: #d8d9d9; }
      .cls-15 { fill: #ed1c24; }
      .cls-16 { fill: #7f93a2; }
      .cls-17 { fill: #333; }
      .cls-18 { fill: #f7ddb0; }
      .cls-19 { fill: #fff; }
      .cls-20 { fill: #e5edf2; }
      .cls-21 { fill: #cad5d9; }
      .cls-22 { fill: #5a7083; }
      .cls-23 { fill: #7a91a2; }
    </style>
  </defs>

  <path class="cls-20" d="M244.72,219.53c-.96.92-1.61,2.06-2.2,3.23-.63,1.25-1.28,2.49-1.99,3.69-1.42,2.43-3.02,4.76-4.79,6.95-.34.42-.41,1,0,1.41.35.35,1.08.42,1.41,0,1.77-2.2,3.4-4.5,4.85-6.92.7-1.18,1.36-2.38,1.98-3.61s1.18-2.41,2.15-3.34-.49-2.31-1.41-1.41h0Z"/>
  <path class="cls-20" d="M248.17,213.45c-3.16,6.19-6.47,12.3-9.94,18.31-.43.75-.87,1.5-1.31,2.25-.21.35-.72,1.68-1.22,1.67-.83-.03-.59-1.49-.43-1.87.28-.66.81-1.22,1.28-1.75,2.38-2.67,4.8-5.31,7.2-7.97.86-.95-.55-2.37-1.41-1.41-1.6,1.77-3.2,3.54-4.8,5.31-1.28,1.42-2.88,2.82-3.83,4.51-.75,1.33-.92,2.98.14,4.2.9,1.05,2.44,1.39,3.5.34.65-.65,1.06-1.6,1.52-2.39.51-.87,1.02-1.75,1.52-2.63,1.08-1.88,2.15-3.77,3.19-5.67,2.17-3.93,4.27-7.89,6.31-11.89.58-1.14-1.14-2.16-1.73-1.01h0Z"/>
  <path class="cls-6" d="M396.82,319.09c2.28.48,4.55.97,6.83,1.45"/>
  <path class="cls-6" d="M395.05,322.75c1.29,0,1.29-2,0-2s-1.29,2,0,2h0Z"/>
  <path class="cls-6" d="M394.98,322.86h.17c.09,0,.18-.02.27-.03l.24-.1.2-.16c.1-.09.17-.2.21-.32.05-.08.07-.16.07-.25.02-.09.02-.18,0-.27,0-.09-.02-.17-.07-.25-.04-.12-.11-.23-.21-.32-.07-.08-.18-.15-.26-.21-.02-.02-.05-.03-.07-.04l-.5,1.86c.06,0,.12,0,.18,0l.27-.04c.13-.03.24-.09.34-.18.08-.04.13-.1.18-.18.09-.1.15-.21.18-.34l.04-.27-.04-.27c-.03-.13-.09-.24-.18-.34-.07-.11-.16-.19-.28-.26-.06-.04-.13-.09-.19-.13l-.5,1.86s.04,0,.06,0l-.27-.04c.1.01.19.04.29.08l-.24-.1s.06.02.08.04c.11.07.24.11.37.12.13.03.27.02.4-.02l.24-.1c.12-.06.21-.15.28-.26.06-.06.1-.14.13-.22.06-.12.09-.25.09-.39l-.04-.27c-.05-.17-.13-.32-.26-.44-.24-.19-.48-.39-.72-.58-.09-.1-.2-.17-.32-.21-.12-.06-.25-.09-.39-.09-.14,0-.27.02-.39.09-.12.04-.23.11-.32.21l-.16.2c-.09.16-.14.32-.14.5l.04.27c.05.17.13.32.26.44.24.19.48.39.72.58l1.21-1.57c-.11-.06-.22-.1-.33-.14-.04-.02-.08-.03-.12-.04-.04-.01-.08-.02-.11-.03-.12-.02-.25-.04-.37-.05l-.27.04c-.13.03-.24.09-.34.18-.08.04-.13.1-.18.18-.09.1-.15.21-.18.34l-.04.27.04.27c.03.13.09.24.18.34.07.11.16.19.28.26.06.04.13.09.19.13l.5-1.86c-.06,0-.12,0-.18,0l-.27.04c-.13.03-.24.09-.34.18-.08.04-.13.1-.18.18-.09.1-.15.21-.18.34l-.04.27.04.27c.03.13.09.24.18.34.07.11.16.19.28.26.03.01.05.03.08.05l-.2-.16s.03.03.05.05l.71-1.71h-.17c-.14,0-.27.02-.39.08-.12.04-.23.11-.32.21-.1.09-.17.2-.21.32-.06.12-.09.25-.09.39l.04.27c.05.17.13.32.26.44l.2.16c.16.09.32.14.5.14h0Z"/>
  <path class="cls-6" d="M395.37,322.51c1.29,0,1.29-2,0-2s-1.29,2,0,2h0Z"/>
  <path class="cls-6" d="M395.11,322.75c1.29,0,1.29-2,0-2s-1.29,2,0,2h0Z"/>
  <path class="cls-6" d="M394.28,321.51c0,.17,0,.34.02.51.01.1.02.2.04.3,0,.01,0,.03,0,.04.02.05.04.11.06.16.02.04.04.11.07.15.02.04.07.09.09.12.01.02.06.08.09.11.06.07.15.13.22.17.08.05.17.09.26.11h0c.09.01.18.03.27.04,0,0,.02,0,.02,0,.14,0,.27-.02.39-.09.12-.04.23-.11.32-.21.1-.09.17-.2.21-.32.06-.12.09-.25.09-.39l-.04-.27c-.05-.17-.13-.32-.26-.44l-.2-.16c-.16-.09-.32-.14-.5-.14,0,0-.02,0-.02,0l.27.04s-.01,0-.01,0l.24.1s-.01,0-.02-.01l.2.16s-.02-.02-.03-.03l.16.2s-.02-.03-.03-.05l.1.24s-.02-.07-.03-.1l.04.27c-.02-.17-.03-.35-.02-.52,0-.14-.02-.27-.09-.39-.04-.12-.11-.23-.21-.32-.09-.1-.2-.17-.32-.21-.12-.06-.25-.09-.39-.09l-.27.04c-.17.05-.32.13-.44.26l-.16.2c-.09.16-.14.32-.14.5h0Z"/>
  <path class="cls-3" d="M433.71,266.67v62.55c-1.5-.63-3.88-1.63-6.83-2.9-4.15-1.78-4.97-2.16-6.83-2.9-3.99-1.58-5.04-1.72-8.2-2.9-2.29-.85-5.61-2.22-9.56-4.34-.93-.37-2.34-.9-4.1-1.45-2.59-.8-3.65-.92-5.46-1.45-2.76-.8-3.31-1.4-6.83-2.9-3.68-1.57-4.43-1.49-8.2-2.9-2.29-.85-5.61-2.22-9.56-4.34-1.9-.59-4.76-1.54-8.2-2.9-2.66-1.05-3.61-1.53-6.83-2.9-3.52-1.49-3.57-1.42-10.93-4.34-6.73-2.68-7.42-3.03-10.93-4.34-3.48-1.3-6.35-2.28-8.2-2.9-2.73-.97-5.46-1.93-8.2-2.9-1.37-.48-2.73-.97-4.1-1.45-2.73-.97-5.46-1.93-8.2-2.9,1.81-3.38,3.63-6.76,5.46-10.14,24.8-45.79,50.34-90.18,76.5-133.21.58,1.2,1.55,3.25,2.73,5.79,0,0,6.14,13.25,12.29,28.96,4.88,12.47,17.85,48.19,34.15,96.72Z"/>
  <path class="cls-23" d="M160.5,33.85s6.13-2.42,10.93-4.34c5.91-2.37,9.23-3.75,17.76-7.24,5.53-2.12,9.4-3.59,15.03-5.79.13-.05.03-.01,10.93-4.34,4.28-1.7,10.93-4.34,10.93-4.34,0,0,15.03-5.79,15.03-5.79,0,0,1.94-.7,5.51-1.99-.01,63.89-.03,127.78-.04,191.67-3.19,1.93-6.37,3.86-9.56,5.79-11.38,7.72-22.77,15.44-34.15,23.17h0c-8.06-2.37-16.53-5.3-25.28-8.93-2.58-1.07-5.1-2.17-7.56-3.28,0,0-.15-.07-8.14-3.72-.98-73.65-1.37-103.91-1.37-105.7v-60.81c0-1.45,0-5.79,0-4.34v2.9c0,.97,0-1.93,0-2.9Z"/>
  <path class="cls-21" d="M231.53,235.11s-10.02-4.83-30.05-14.48c10.66-6.93,21.42-14.1,32.25-21.52,6.83-4.68,11.72-8.11,12.83-8.88,36.77-25.71,164.97-104.06,165.29-104.25h0c-34.75,61.65-69.49,123.31-104.24,184.96-6.66-2.81-13.32-5.63-19.98-8.44-.03.04-.06.08-.1.12,25.5-41.02,51-82.05,76.5-123.07l-83.33,117.28c-2.28-.97-4.55-1.93-6.83-2.9,0,0,62.84-107.14,62.84-107.15,0,0-73.77,102.8-73.77,102.8-3.19-1.45-6.37-2.9-9.56-4.34,12.29-20.75,18.44-31.13,18.44-31.13,0,0-18.44,31.13-18.44,31.13,0,0,12.29-20.75,36.88-62.26-15.48,19.31-30.96,38.61-46.45,57.92-2.28-.97-4.55-1.93-6.83-2.9,4.1-8.2,8.2-16.41,12.29-24.61-11.55,14.12-17.76,21.72-17.76,21.72Z"/>
  <path class="cls-11" d="M299.84,155.47h0c-17.76,11.58-35.52,23.17-53.28,34.75.01-63.41.03-126.81.04-190.22,17.74,7.9,35.49,15.81,53.23,23.71h0v131.76Z"/>
  <path class="cls-22" d="M384.53,135.2h0c9.11-16.41,18.21-32.82,27.32-49.23h0c22.19,60.5,44.37,120.99,66.56,181.49-15.67,0-30.07,0-44.46,0-7.67-21.42-14-38.76-18.47-50.89-5.48-14.89-14.56-39.38-14.56-39.38,0,0-15.03-38.49-16.39-41.99Z"/>
  <path class="cls-16" d="M59.41,314.74v-125.97c19.58-7.24,39.16-14.48,58.74-21.72,1.37,25.1,2.73,50.19,4.1,75.29-.78,1.4-2.09,3.54-4.1,5.79-3.62,4.06-7.35,6.07-9.56,7.24-6.24,3.29-19.91,8.34-38.25,13.03-.46,2.9-.91,5.79-1.37,8.69,13.21-7.24,26.41-14.48,39.62-21.72-6.83,8.2-13.66,16.41-20.49,24.61,0,0,0,0,0,0h0s-19.12,13.03-19.12,13.03c0,0,19.12-13.03,19.12-13.03-9.56,11.58-19.12,23.17-28.69,34.75Z"/>
  <path class="cls-2" d="M299.89,129.48c-.19-3.4-.38-6.8-.57-10.21h.51c50.09-35.71,100.18-71.43,150.26-107.14,0,0,0,0,0,0-1.31.74-4.09,2.31-7.58,4.29-37.44,21.27-68.9,40.52-142.68,86.93v-10.14S456.93.55,456.93.55v111.49h2.73v15.93c-4.48.11-7.91,3.46-8.2,7.24-.2,2.66,1.13,6.03,4.1,7.24,2.26.92,4.9.35,6.83-1.45.46-1.45.91-2.9,1.37-4.34.23.64,1.02,3.09,0,5.79-1.07,2.84-3.4,4-4.1,4.34-3.4,1.69-7.76.87-10.68-1.76-4.01-3.6-3.97-9.42-2.98-12.72.46-1.53,1.15-2.58,1.37-2.9,2.23-3.26,5.67-4.11,6.83-4.34V15.02c-51.44,38.15-102.87,76.3-154.31,114.45Z"/>
  <path class="cls-4" d="M118.15,168.5c-3.64.97-7.29,1.93-10.93,2.9v-69.5c12.29-3.86,24.59-7.72,36.88-11.58v85.43c-8.65-2.41-17.3-4.83-25.95-7.24Z"/>
  <path class="cls-5" d="M144.11,206.15v-115.83c5.92,1.45,11.84,2.9,17.76,4.34v111.49h-17.76Z"/>
  <path class="cls-17" d="M478.79,348.04l-449.43,1.45c42.35-21.72,84.69-43.44,127.04-65.16h0c107.46,21.24,214.92,42.47,322.39,63.71Z"/>
  <path class="cls-10" d="M437.9,433.92h-7.73v-64.57h7.34c2.8,10.76,5.61,21.54,8.41,32.32.46-.03.93-.06,1.39-.09v-32.43h7.92v64.61h-7.42c-2.74-10.48-5.54-21.16-8.34-31.85-.52.09-1.05.18-1.57.26v31.74Z"/>
  <path class="cls-8" d="M179.01,369.13h7.41c1.5,5.65,2.96,11.16,4.42,16.67,1.42,5.37,2.84,10.74,5.7,15.82v-32.38h7.93v64.6h-7.6c-2.84-10.75-5.74-21.71-8.64-32.66-.44.04-.89.08-1.33.12v32.55h-7.89v-64.72Z"/>
  <path class="cls-13" d="M23.82,401.21c0-6.51-.39-13.05.1-19.52.63-8.29,4.85-12.56,11.44-12.67,6.6-.11,11.45,4.13,11.79,12.23.56,13.47.57,27.01.03,40.48-.32,7.99-5.26,12.33-11.76,12.2-6.75-.13-10.93-4.22-11.56-12.48-.51-6.71-.1-13.49-.1-20.24.02,0,.04,0,.06,0ZM38.44,401.42s.04,0,.06,0c0-6.01.21-12.03-.14-18.02-.1-1.65-1.86-3.2-2.85-4.79-.94,1.4-2.66,2.79-2.69,4.21-.21,12.49-.2,25,.03,37.49.02,1.35,1.83,2.67,2.81,4,.93-1.38,2.59-2.72,2.66-4.15.29-6.23.13-12.49.13-18.74Z"/>
  <path class="cls-10" d="M291.13,433.75h-8.6c-1.62-8.98-3.22-17.89-4.82-26.79-.69.08-1.38.16-2.07.24v26.4h-8.95v-64.35c1.41-.11,2.92-.33,4.42-.33,17.52-.08,25.2,14.51,16.56,31.11-1.06,2.03-1.47,4.9-1.14,7.21,1.27,8.74,2.98,17.42,4.59,26.52ZM275.28,397.9c7.46-1.74,6.84-7.18,6.56-12.06-.23-3.85-1.13-7.69-6.56-6.94v19Z"/>
  <path class="cls-2" d="M107.22,130.86v4.34l-67.4-43.1c-.62.98,24.68,20.33,67.17,51.85-.01,1.45-.02,2.9-.03,4.34-23.31-17.79-46.63-35.59-69.94-53.38-.37,26.67-.76,45.91-1.42,52.1-.15,1.41-.58,4.65,1.17,7.28,1.53,2.3,3.27,1.93,5.34,4.51.51.63,2.61,3.4,2.53,7.32,0,.5-.19,5.7-4.33,8.56-2.94,2.03-7.61,2.7-10.92-.33-2.64-2.42-3.61-6.47-2.45-10.21.42,1.46.83,2.92,1.25,4.38,1.88,3.5,5.7,4.6,8.11,3.15,2.74-1.65,2.96-6.22,1.6-8.64-1.31-2.34-3.62-1.86-5.34-4.51-1.37-2.11-1.26-4.49-1.21-5.83.21-5.56.91-32.15,2.01-68.64,24.62,15.61,49.25,31.21,73.87,46.82Z"/>
  <path class="cls-10" d="M311.36,369.05h8.7c0,10.14,0,20.12,0,30.11,0,6.98.12,13.97-.1,20.95-.26,8.36-4.55,13.48-11.12,13.76-7.12.3-12.15-4.49-12.33-13.12-.35-17.04-.1-34.1-.1-51.5h8.67c0,15.39,0,30.54,0,45.68,0,1.92-.33,4.01.27,5.72.52,1.48,2.15,2.52,3.29,3.75.87-1.25,2.36-2.44,2.5-3.78.38-3.57.2-7.21.2-10.82.01-13.43,0-26.86,0-40.76Z"/>
  <path class="cls-10" d="M399.98,401.54c0-6.74-.31-13.5.08-20.21.44-7.59,4.7-11.99,10.98-12.28,6.33-.29,11.58,3.69,11.93,11.16.66,14.15.65,28.38.04,42.54-.32,7.41-5.57,11.43-11.88,11.17-6.36-.27-10.64-4.64-11.06-12.17-.37-6.72-.08-13.47-.08-20.21ZM408.48,400.93c0,6.49-.17,13,.13,19.48.07,1.45,1.82,2.8,2.8,4.2,1.08-1.28,3.06-2.55,3.09-3.86.27-12.74.31-25.48.12-38.22-.02-1.43-1.9-2.84-2.92-4.25-1.08,1.54-2.98,3.02-3.08,4.63-.37,5.99-.15,12.02-.14,18.03Z"/>
  <path class="cls-10" d="M101.28,401.56c0,6.5.21,13.01-.05,19.5-.31,7.7-4.9,12.7-11.25,12.84-6.95.15-11.87-4.46-12.09-12.57-.36-13.23-.32-26.48,0-39.71.19-7.64,5.14-12.56,11.51-12.58,6.69-.02,11.5,5.07,11.82,13.04.26,6.49.05,13,.06,19.5ZM92.77,401.58c0-6.02.26-12.06-.16-18.04-.13-1.83-2.15-3.5-3.3-5.25-1.01,1.67-2.86,3.33-2.9,5.02-.25,12.03-.26,24.07.04,36.1.05,1.79,2.16,3.51,3.32,5.27,1-1.92,2.73-3.79,2.86-5.78.39-5.75.14-11.54.13-17.32Z"/>
  <path class="cls-10" d="M172.31,401.95c0,6.26.2,12.52-.05,18.77-.32,8.09-4.98,13.19-11.61,13.21-6.81.03-11.56-4.8-11.75-13.03-.31-12.99-.32-25.99,0-38.98.2-8.07,5.22-13.04,11.9-12.85,6.72.19,11.2,5.2,11.5,13.39.24,6.49.05,12.99.05,19.49h-.03ZM163.76,401.57c0-6.26.23-12.53-.16-18.76-.1-1.57-2.18-3.01-3.35-4.51-.97,1.44-2.76,2.86-2.79,4.32-.23,12.51-.26,25.03,0,37.54.03,1.51,2.16,2.98,3.31,4.46.99-1.67,2.74-3.28,2.84-5.01.35-5.99.14-12.02.13-18.04Z"/>
  <path class="cls-13" d="M378.67,391.14h-7.91c0-3.05.45-5.77-.15-8.2-.42-1.69-2.27-2.98-3.49-4.45-.95,1.47-2.61,2.89-2.72,4.43-.36,5.28-.19,10.6-.2,15.9,0,6.51-.26,13.04.17,19.52.14,2.1,2.11,4.06,3.24,6.08,1.07-2.08,2.42-4.07,3.11-6.28.54-1.74.26-3.76.36-6.15h7.6c0,3.95.44,7.81-.1,11.52-.89,6.17-4.52,10.05-10.55,10.37-6.14.33-11.56-2.52-11.86-9.25-.68-15.34-.69-30.76,0-46.1.3-6.59,5.53-9.84,11.75-9.45,6.27.39,9.97,4.39,10.67,10.98.37,3.51.07,7.1.07,11.06Z"/>
  <path class="cls-8" d="M143.86,391.31h-8.77c0-3.05.34-5.91-.13-8.6-.27-1.56-1.86-2.86-2.86-4.28-1.14,1.23-3.26,2.43-3.28,3.68-.24,12.98-.22,25.98-.01,38.96.02,1.17,1.87,2.3,2.86,3.45,1.12-1.24,2.95-2.33,3.22-3.75.52-2.74.15-5.66.15-8.89h8.78c-.51,4.76-.64,9.26-1.54,13.57-1.27,6.06-5.56,8.54-11.1,8.44-5.66-.1-10.35-3.19-10.6-9.09-.65-15.34-.73-30.74-.15-46.08.24-6.14,4.98-9.6,10.96-9.66,5.61-.06,9.72,2.9,11.07,8.74.95,4.11.92,8.48,1.4,13.51Z"/>
  <path class="cls-8" d="M349.81,391.28h-8.15c0-2.76.37-5.39-.12-7.83-.36-1.79-1.85-3.33-2.84-4.98-1.21,1.44-3.43,2.86-3.47,4.34-.26,12.52-.23,25.06.03,37.58.03,1.38,2.01,2.71,3.09,4.07,1.1-1.51,2.76-2.88,3.17-4.58.55-2.25.14-4.76.14-8.05,2.62-.14,4.97-.26,8.06-.42,0,4.17.39,7.97-.08,11.64-.86,6.76-5.54,10.91-11.55,10.89-6.12-.02-11.12-4.02-11.4-10.99-.56-14.19-.55-28.43-.08-42.62.22-6.88,5.25-11.16,11.21-11.32,6.18-.16,11.01,4.26,11.91,11.41.42,3.3.07,6.7.07,10.86Z"/>
  <path class="cls-8" d="M234.76,385.97c-2.8.2-5.22.38-7.59.54-1.18-3.16-2.22-5.94-3.61-9.66-5.53,4.28-4.32,8.87-2.14,13.02,2.86,5.45,7.05,10.21,9.36,15.87,2.15,5.29,3.66,11.4,3.51,17.09-.19,7.37-5.18,11.19-11.81,11.16-7.1-.03-11.39-4.01-12.3-11.62-.25-2.09-.04-4.25-.04-6.87,2.48-.23,4.88-.45,7.62-.7.34,1.94.24,3.79,1,5.04,1.18,1.93,2.96,3.45,4.48,5.15,1-2.24,3.29-4.9,2.77-6.62-1.42-4.71-4.01-9.01-6.15-13.48-2.86-5.96-6.51-11.66-8.35-17.95-1.61-5.52-1.02-12.41,4.41-15.4,3.5-1.93,9.04-2.2,12.72-.67,5.65,2.36,6.18,8.72,6.12,15.09Z"/>
  <path class="cls-8" d="M486.41,415.33c2.92-.16,5.17-.28,7.84-.42.45,2.18.49,4.4,1.38,6.13.83,1.6,2.57,2.68,3.9,3.98,1.05-1.65,3.21-3.54,2.95-4.92-.77-4.11-2.12-8.22-3.91-11.96-3.27-6.81-7.76-13.05-10.34-20.1-2.09-5.71-1.41-12.67,4.07-16.18,3.18-2.04,8.34-2.56,11.97-1.44,6.52,2.02,6.97,8.57,6.98,15.42-2.53.27-4.92.52-7.22.76-1.44-3.17-2.77-6.09-4.49-9.87-4.93,5.07-3.6,9.41-1.46,13.36,2.81,5.2,6.65,9.82,9.08,15.18,2.09,4.6,3.77,9.86,3.93,14.89.29,9.01-3.96,13.43-11.45,13.81-7.65.38-12.27-4.17-13.2-13.1-.17-1.64-.02-3.31-.02-5.53Z"/>
  <path class="cls-10" d="M462.94,369.22h19.49v9.19c-3.62.17-6.94.32-10.7.5v16.96c2.16.18,4.55.39,7.4.63v10.05h-7.56v17.48h10.58v9.72h-19.23v-64.53Z"/>
  <path class="cls-10" d="M245.78,379.11c-3.36-.29-5.78-.49-8.55-.73v-9.05h25.12v8.9c-2.63.29-5.06.55-7.94.87v54.49h-8.63v-54.48Z"/>
  <path class="cls-13" d="M62.38,425.33h11.59v8.43h-20v-64.4h8.42v55.97Z"/>
  <path class="cls-1" d="M0,433.64v-64.21h8.36v55.68h11.68v8.53H0Z"/>
  <path class="cls-2" d="M155.03,93.21c-3.64-.97-7.29-1.93-10.93-2.9-6.23,2-12.46,4-18.69,6-.15-6.34-.29-12.69-.44-19.03l13.28-9.04c5.59,1.56,11.18,3.13,16.77,4.69h0v20.27Z"/>
  <path class="cls-1" d="M392.92,433.75h-8v-64.47h8v64.47Z"/>
  <path class="cls-7" d="M140.36,68.55c-.11.02-.23.04-.35.04-.72.05-1.32-.15-1.75-.35,0-14.6,0-29.21,0-43.81.7,0,1.4,0,2.1-.01v44.13Z"/>
  <path class="cls-2" d="M172.81,31.44c-1.11.72-2.23,1.43-3.35,2.15,1.11-.72,2.23-1.43,3.35-2.15Z"/>
  <path class="cls-2" d="M178.24,29.43c-1.02.46-2.03.92-3.05,1.38,1.02-.46,2.03-.92,3.05-1.38Z"/>
  <path class="cls-12" d="M174.16,197.46c33.87-14.19,58.74-24.61,58.74-24.61h0v11.58h0c-19.58,8.2-39.16,16.41-58.74,24.61v-11.58Z"/>
  <path class="cls-12" d="M174.16,123.62c33.87-14.19,58.74-24.61,58.74-24.61v11.58c-19.58,8.2-39.16,16.41-58.74,24.61v-11.58Z"/>
  <path class="cls-12" d="M174.16,99c33.87-14.19,58.74-24.61,58.74-24.61h0v11.58h0c-19.58,8.2-39.16,16.41-58.74,24.61v-11.58Z"/>
  <path class="cls-12" d="M238.36,196.01h0c-11.38,8.2-22.77,16.41-34.15,24.61-4.55-1.93-9.11-3.86-13.66-5.79,15.94-6.27,31.87-12.55,47.81-18.82Z"/>
  <path class="cls-23" d="M181.46,218.8s-.28-.1-.28-.1"/>
  <path class="cls-20" d="M291.64,261.17c-4.1-1.45-8.2-2.9-12.29-4.34,4.66-6.92,6.83-10.14,6.83-10.14h0s11.34-16.74,17.76-26.06c8.73-12.67,15.18-21.49,25.95-36.2,22.03-30.07,33.33-45.5,34.15-44.89.6.45-4.24,9.63-30.05,50.68-14.12,23.65-28.23,47.3-42.35,70.95Z"/>
  <path class="cls-20" d="M275.25,253.93c-4.1-1.93-8.2-3.86-12.29-5.79h0l75.13-102.8h0s-62.84,108.59-62.84,108.59Z"/>
  <path class="cls-20" d="M254.76,245.24h0c-3.64-1.45-7.29-2.9-10.93-4.34h0l47.81-59.36h0c-12.29,21.24-24.59,42.47-36.88,63.71Z"/>
  <path class="cls-3" d="M118.15,168.5c12.75,3.38,25.5,6.76,38.25,10.14v23.17c-12.75,14-25.5,27.99-38.25,41.99v-75.29Z"/>
  <path class="cls-12" d="M68.97,251.52c14.12-5.47,28.23-10.94,42.35-16.41v8.2c-14.12,5.47-28.23,10.94-42.35,16.41v-8.2Z"/>
  <path class="cls-12" d="M68.97,242.35v-9.07c14.12-5.18,28.23-10.36,42.35-15.55v9.07c-3.99,1.5-7.99,3-12.01,4.49-10.17,3.77-20.28,7.46-30.34,11.06Z"/>
  <path class="cls-12" d="M68.97,223.52v-9.07c14.12-5.18,28.23-10.36,42.35-15.55v9.07c-3.99,1.5-7.99,3-12.01,4.49-10.17,3.77-20.28,7.46-30.34,11.06Z"/>
  <path class="cls-21" d="M109.95,253.93c-3.16,3.86-6.32,7.72-9.48,11.58-10.5,3.82-21,7.64-31.5,11.46.11-2.85.23-5.71.34-8.56,13.55-4.83,27.09-9.65,40.64-14.48Z"/>
  <path class="cls-14" d="M89.46,278.54c-2.73,3.38-5.46,6.76-8.2,10.14-4.1,1.45-8.2,2.9-12.29,4.34h0v-7.24c6.83-2.41,13.66-4.83,20.49-7.24Z"/>
  <path class="cls-15" d="M156.4,198.91c214.92,99.42,322.39,149.13,322.39,149.13,0,0-112.33-40.53-321.02-115.83-42.8,39.09-85.61,78.19-128.41,117.28h0"/>
  <path class="cls-20" d="M75.73,118c.06-.8.11-1.6.16-2.4-.06.8-.11,1.6-.16,2.4Z"/>
  <path class="cls-15" d="M29.36,349.49l128.41-92.67c107.01,30.41,214.01,60.81,321.02,91.22l-322.39-60.81-127.04,62.26Z"/>
  <path class="cls-19" d="M478.79,348.04l-321.02-91.22c-42.8,30.89-85.61,61.78-128.41,92.67,42.8-39.09,85.61-78.19,128.41-117.28,107.01,38.61,214.01,77.22,321.02,115.83Z"/>
  <path class="cls-18" d="M392.14,323.66c1.55.46,3.1.93,4.65,1.39-1.55-.46-3.1-.93-4.65-1.39Z"/>
  <path class="cls-18" d="M396.68,324.98c.46.21.92.42,1.38.63-.46-.21-.92-.42-1.38-.63Z"/>
  <path class="cls-9" d="M310.13,300.55c2.95.86,5.91,1.71,8.86,2.57-2.95-.86-5.91-1.71-8.86-2.57Z"/>
  <path class="cls-12" d="M68.97,206.15v-9.07c14.12-5.18,28.23-10.36,42.35-15.55v9.07c-3.99,1.5-7.99,3-12.01,4.49-10.17,3.77-20.28,7.46-30.34,11.06Z"/>
  <path class="cls-12" d="M174.16,148.23c33.87-14.19,58.74-24.61,58.74-24.61h0v11.58h0c-19.58,8.2-39.16,16.41-58.74,24.61v-11.58Z"/>
  <path class="cls-12" d="M174.16,51.22c33.87-14.19,58.74-24.61,58.74-24.61h0v11.58h0c-19.58,8.2-39.16,16.41-58.74,24.61v-11.58Z"/>
  <path class="cls-12" d="M174.16,75.84c33.87-14.19,58.74-24.61,58.74-24.61h0v11.58h0c-19.58,8.2-39.16,16.41-58.74,24.61v-11.58Z"/>
  <path class="cls-12" d="M174.16,171.4c33.87-14.19,58.74-24.61,58.74-24.61h0v11.58h0c-19.58,8.2-39.16,16.41-58.74,24.61v-11.58Z"/>
</svg>